# xmcd
#
# Track frame offsets: 
#        150
#        11772
#        26250
#        38677
#        53500
#        69147
#        87205
#        102365
#        113505
#        125755
#        136380
#        148847
#        159155
#        171652
#        184735
#        196205
#        214047
#        225162
#        235157
#        248540
#
# Disc length: 3480 seconds
#
# Revision: 0
# Processed by: cddbd v1.5.2PL0 Copyright (c) Steve Scherf et al.
# Submitted via: ExactAudioCopyFreeDBPlugin 1.0
#
DISCID=fc0d9614
DTITLE=Various Artist - Country Dreams
DYEAR=1997
DGENRE=Country
TTITLE0=Patsy Cline - I've Loved And Lost Again
TTITLE1=Glen Campbell - Rhinestone Cowboy
TTITLE2=Charlie Rich - Behind Closed Doors
TTITLE3=Billie Jo Spears - Midnight Love
TTITLE4=Charley Pride - Me And Bobby McGhee
TTITLE5=Rick Nelson - Garden Party
TTITLE6=Kenny Rogers - For The Good Times
TTITLE7=Jim Reeves - Am I Losing You
TTITLE8=Crystal Gayle - Don't It Make My Brown Eyes Blue
TTITLE9=Hank Locklin - Send Me The Pillow That You Dream On
TTITLE10=Johnny Cash - I Still Miss Someone
TTITLE11=Don Gibson - Lonesome Number One
TTITLE12=Wanda Jackson - Crazy
TTITLE13=Don Williams - Where Do We Go From Here
TTITLE14=Dolly Parton - Letter To Heaven
TTITLE15=Johnny Lee - Lookin' For Love
TTITLE16=George Jones - Once A Day
TTITLE17=Brenda Lee - I'm Sorry
TTITLE18=Johnny Tillotson - I'm So Lonesome I Could Cry
TTITLE19=Jerry Wallace - In The Misty Moonlight
EXTD=
EXTT0=
EXTT1=
EXTT2=
EXTT3=
EXTT4=
EXTT5=
EXTT6=
EXTT7=
EXTT8=
EXTT9=
EXTT10=
EXTT11=
EXTT12=
EXTT13=
EXTT14=
EXTT15=
EXTT16=
EXTT17=
EXTT18=
EXTT19=
PLAYORDER=
